<svg aria-hidden="true" style="position:absolute;width:0;height:0;overflow:hidden" xmlns="http://www.w3.org/2000/svg"><defs><symbol id="icon-arrow_down" viewBox="0 0 24 24"><path d="M7.406 8.578 12 13.172l4.594-4.594L18 9.984l-6 6-6-6z"/></symbol><symbol id="icon-check_mark" viewBox="0 0 20 20"><path d="M8.294 16.998c-.435 0-.847-.203-1.111-.553L3.61 11.724a1.392 1.392 0 0 1 .27-1.951 1.392 1.392 0 0 1 1.953.27l2.351 3.104 5.911-9.492c.407-.652 1.267-.852 1.921-.445s.854 1.266.446 1.92L9.478 16.34a1.39 1.39 0 0 1-1.12.656c-.022.002-.042.002-.064.002z"/></symbol><symbol id="icon-info" viewBox="0 0 24 24"><path d="M11.016 9V6.984h1.969V9h-1.969zM12 20.016q3.281 0 5.648-2.367t2.367-5.648-2.367-5.648T12 3.986 6.352 6.353t-2.367 5.648 2.367 5.648T12 20.016zm0-18q4.125 0 7.055 2.93t2.93 7.055-2.93 7.055T12 21.986t-7.055-2.93-2.93-7.055 2.93-7.055T12 2.016zm-.984 15v-6h1.969v6h-1.969z"/></symbol></defs></svg>